<mxfile host="app.diagrams.net" modified="2021-11-16T20:14:31.414Z" agent="5.0 (Windows NT 10.0; Win64; x64) AppleWebKit/537.36 (KHTML, like Gecko) Chrome/95.0.4638.69 Safari/537.36" etag="bK30QS0GMycBnvt_ucmW" version="15.7.4" type="github">
  <diagram name="Page-1" id="e7e014a7-5840-1c2e-5031-d8a46d1fe8dd">
    <mxGraphModel dx="1423" dy="762" grid="1" gridSize="10" guides="1" tooltips="1" connect="1" arrows="1" fold="1" page="1" pageScale="1" pageWidth="1169" pageHeight="826" background="none" math="0" shadow="0">
      <root>
        <mxCell id="0" />
        <mxCell id="1" parent="0" />
        <mxCell id="2" value="Front end" style="swimlane;whiteSpace=wrap" parent="1" vertex="1">
          <mxGeometry x="164.5" y="128" width="280" height="662" as="geometry" />
        </mxCell>
        <mxCell id="5" value="" style="ellipse;shape=startState;fillColor=#000000;strokeColor=#ff0000;" parent="2" vertex="1">
          <mxGeometry x="100" y="40" width="30" height="30" as="geometry" />
        </mxCell>
        <mxCell id="6" value="" style="edgeStyle=elbowEdgeStyle;elbow=horizontal;verticalAlign=bottom;endArrow=open;endSize=8;strokeColor=#000000;endFill=1;rounded=0" parent="2" source="5" target="7" edge="1">
          <mxGeometry x="100" y="40" as="geometry">
            <mxPoint x="115" y="110" as="targetPoint" />
          </mxGeometry>
        </mxCell>
        <mxCell id="7" value="User press button&#xa;&quot;download&quot;" style="strokeWidth=2;" parent="2" vertex="1">
          <mxGeometry x="35" y="92" width="160" height="50" as="geometry" />
        </mxCell>
        <mxCell id="8" value="User can switch to &#xa;another module" style="strokeWidth=2;dashed=1;dashPattern=1 1;" parent="2" vertex="1">
          <mxGeometry x="35" y="183" width="160" height="50" as="geometry" />
        </mxCell>
        <mxCell id="9" value="" style="endArrow=open;strokeColor=#000000;endFill=1;rounded=0;exitX=0.5;exitY=1;exitDx=0;exitDy=0;" parent="2" source="7" target="8" edge="1">
          <mxGeometry relative="1" as="geometry">
            <mxPoint x="115.5" y="162" as="sourcePoint" />
          </mxGeometry>
        </mxCell>
        <mxCell id="10" value="1.any notification is being hidden&#xa;2.if file is created w/o&#xa;error, create request &#xa;to back-end &#xa;to download the file" style="align=left;strokeWidth=2;" parent="2" vertex="1">
          <mxGeometry x="36" y="322" width="159" height="85" as="geometry" />
        </mxCell>
        <mxCell id="12" value="" style="edgeStyle=elbowEdgeStyle;elbow=horizontal;strokeColor=#FF0000;endArrow=open;endFill=1;rounded=0;startArrow=none;" parent="2" source="upPxFK4V3KSuMPYXxNnu-51" target="7" edge="1">
          <mxGeometry width="100" height="100" relative="1" as="geometry">
            <mxPoint x="160" y="290" as="sourcePoint" />
            <mxPoint x="260" y="190" as="targetPoint" />
            <Array as="points" />
          </mxGeometry>
        </mxCell>
        <mxCell id="upPxFK4V3KSuMPYXxNnu-45" value="" style="endArrow=open;strokeColor=#000000;endFill=1;rounded=0;" parent="2" edge="1">
          <mxGeometry relative="1" as="geometry">
            <mxPoint x="195.5" y="102" as="sourcePoint" />
            <mxPoint x="300" y="101.5" as="targetPoint" />
          </mxGeometry>
        </mxCell>
        <mxCell id="upPxFK4V3KSuMPYXxNnu-46" value="send request to back-end" style="text;html=1;strokeColor=none;fillColor=none;align=center;verticalAlign=middle;whiteSpace=wrap;rounded=0;" parent="2" vertex="1">
          <mxGeometry x="203.5" y="62" width="84.5" height="30" as="geometry" />
        </mxCell>
        <mxCell id="upPxFK4V3KSuMPYXxNnu-51" value="Actor" style="shape=umlActor;verticalLabelPosition=bottom;verticalAlign=top;html=1;outlineConnect=0;rounded=0;strokeColor=#000000;" parent="2" vertex="1">
          <mxGeometry x="14" y="82" width="30" height="40" as="geometry" />
        </mxCell>
        <mxCell id="upPxFK4V3KSuMPYXxNnu-61" value="1.hide message if no errors&#xa;2.if file is created w/o&#xa;error, create request &#xa;to back-end &#xa;to download the file&#xa;3.show notification on UI &#xa;about error on back-end side" style="align=left;strokeColor=#FF0000;strokeWidth=2;" parent="2" vertex="1">
          <mxGeometry x="36.5" y="430" width="159" height="120" as="geometry" />
        </mxCell>
        <mxCell id="upPxFK4V3KSuMPYXxNnu-67" value="" style="endArrow=open;strokeColor=#000000;endFill=1;rounded=0;exitX=0.5;exitY=1;exitDx=0;exitDy=0;" parent="2" source="10" target="upPxFK4V3KSuMPYXxNnu-61" edge="1">
          <mxGeometry relative="1" as="geometry">
            <mxPoint x="472.50460251046013" y="482" as="sourcePoint" />
            <mxPoint x="472.7221757322176" y="534" as="targetPoint" />
          </mxGeometry>
        </mxCell>
        <mxCell id="upPxFK4V3KSuMPYXxNnu-68" value="" style="shape=sumEllipse;perimeter=ellipsePerimeter;whiteSpace=wrap;html=1;backgroundOutline=1;rounded=0;fontColor=#FF0000;strokeColor=#FF0000;strokeWidth=2;align=left;gradientColor=#ffffff;fillColor=none;" parent="2" vertex="1">
          <mxGeometry x="25.5" y="310" width="30" height="30" as="geometry" />
        </mxCell>
        <mxCell id="upPxFK4V3KSuMPYXxNnu-89" value="file download" style="strokeWidth=2;" parent="2" vertex="1">
          <mxGeometry x="35" y="572" width="160" height="50" as="geometry" />
        </mxCell>
        <mxCell id="upPxFK4V3KSuMPYXxNnu-78" value="&lt;font style=&quot;font-size: 12px&quot;&gt;&lt;b&gt;WebSocket&lt;/b&gt;&lt;/font&gt;" style="text;html=1;strokeColor=none;fillColor=none;align=center;verticalAlign=middle;whiteSpace=wrap;rounded=0;dashed=1;fontSize=11;fontColor=#000000;" parent="2" vertex="1">
          <mxGeometry x="70" y="276" width="90" height="30" as="geometry" />
        </mxCell>
        <mxCell id="3" value="Back end" style="swimlane;whiteSpace=wrap;dashed=1;rounded=1;" parent="1" vertex="1">
          <mxGeometry x="444.5" y="128" width="465.5" height="662" as="geometry" />
        </mxCell>
        <mxCell id="17" value="" style="endArrow=open;strokeColor=#000000;endFill=1;rounded=0;entryX=0.5;entryY=0;entryDx=0;entryDy=0;exitX=0.5;exitY=1;exitDx=0;exitDy=0;" parent="3" source="upPxFK4V3KSuMPYXxNnu-54" target="21" edge="1">
          <mxGeometry relative="1" as="geometry">
            <mxPoint x="75.5" y="182" as="sourcePoint" />
            <mxPoint x="75.5" y="202" as="targetPoint" />
          </mxGeometry>
        </mxCell>
        <mxCell id="18" value="Notification is being&#xa;created and &#xa;sent to Front" style="strokeWidth=2;" parent="3" vertex="1">
          <mxGeometry x="20" y="325" width="110" height="50" as="geometry" />
        </mxCell>
        <mxCell id="21" value="is the processing finished&#xa;without errors?" style="rhombus;fillColor=#ffffc0;strokeColor=#000000;strokeWidth=2;fontStyle=0" parent="3" vertex="1">
          <mxGeometry x="17.5" y="146" width="115" height="72" as="geometry" />
        </mxCell>
        <mxCell id="30" value="Notification is being &#xa;created and &#xa;sent to Front" style="strokeWidth=2;" parent="3" vertex="1">
          <mxGeometry x="330.5" y="323" width="110" height="50" as="geometry" />
        </mxCell>
        <mxCell id="23" value="no" style="edgeStyle=elbowEdgeStyle;elbow=horizontal;align=left;verticalAlign=top;endArrow=open;endSize=8;strokeColor=#000000;endFill=1;rounded=0;entryX=0.5;entryY=0;entryDx=0;entryDy=0;" parent="3" target="30" edge="1">
          <mxGeometry x="-1" relative="1" as="geometry">
            <mxPoint x="386.5" y="312" as="targetPoint" />
            <mxPoint x="135.5" y="182" as="sourcePoint" />
            <Array as="points">
              <mxPoint x="386" y="242" />
              <mxPoint x="391" y="262" />
            </Array>
          </mxGeometry>
        </mxCell>
        <mxCell id="upPxFK4V3KSuMPYXxNnu-47" value="yes" style="edgeStyle=elbowEdgeStyle;elbow=horizontal;align=left;verticalAlign=top;endArrow=open;endSize=8;strokeColor=#000000;endFill=1;rounded=0;entryX=0.5;entryY=0;entryDx=0;entryDy=0;exitX=0.5;exitY=1;exitDx=0;exitDy=0;" parent="3" source="21" target="upPxFK4V3KSuMPYXxNnu-83" edge="1">
          <mxGeometry x="-1" relative="1" as="geometry">
            <mxPoint x="213.4699999999998" y="336" as="targetPoint" />
            <mxPoint x="125" y="252" as="sourcePoint" />
            <Array as="points" />
          </mxGeometry>
        </mxCell>
        <mxCell id="upPxFK4V3KSuMPYXxNnu-48" value="Message will be&#xa;created and &#xa;sent to Front" style="strokeColor=#FF0000;strokeWidth=2;" parent="3" vertex="1">
          <mxGeometry x="175.5" y="323" width="110" height="50" as="geometry" />
        </mxCell>
        <mxCell id="upPxFK4V3KSuMPYXxNnu-54" value="&lt;span style=&quot;font-weight: normal&quot;&gt;Create the file&lt;/span&gt;" style="label;whiteSpace=wrap;html=1;image=img/clipart/Gear_128x128.png;rounded=0;strokeColor=#000000;strokeWidth=2;" parent="3" vertex="1">
          <mxGeometry x="20" y="70" width="110" height="60" as="geometry" />
        </mxCell>
        <mxCell id="upPxFK4V3KSuMPYXxNnu-59" value="&lt;font color=&quot;#000000&quot;&gt;it can take long time&lt;/font&gt;" style="text;html=1;strokeColor=none;fillColor=none;align=center;verticalAlign=middle;whiteSpace=wrap;rounded=0;fontColor=#006600;" parent="3" vertex="1">
          <mxGeometry x="132.5" y="70" width="60" height="30" as="geometry" />
        </mxCell>
        <mxCell id="upPxFK4V3KSuMPYXxNnu-79" value="" style="shape=sumEllipse;perimeter=ellipsePerimeter;whiteSpace=wrap;html=1;backgroundOutline=1;rounded=0;fontColor=#FF0000;strokeColor=#FF0000;strokeWidth=2;align=left;gradientColor=#ffffff;fillColor=none;" parent="3" vertex="1">
          <mxGeometry x="10.5" y="316" width="30" height="30" as="geometry" />
        </mxCell>
        <mxCell id="upPxFK4V3KSuMPYXxNnu-81" value="" style="edgeStyle=elbowEdgeStyle;elbow=horizontal;align=left;verticalAlign=top;endArrow=open;endSize=8;strokeColor=#FF0000;endFill=1;rounded=0;entryX=1;entryY=0.365;entryDx=0;entryDy=0;entryPerimeter=0;fontColor=#FF0000;" parent="3" target="upPxFK4V3KSuMPYXxNnu-61" edge="1">
          <mxGeometry x="-1" relative="1" as="geometry">
            <mxPoint x="-86.25099999999998" y="468.03" as="targetPoint" />
            <mxPoint x="96.5" y="374" as="sourcePoint" />
            <Array as="points">
              <mxPoint x="96" y="442" />
              <mxPoint x="422.77" y="504" />
            </Array>
          </mxGeometry>
        </mxCell>
        <mxCell id="upPxFK4V3KSuMPYXxNnu-83" value="save file&#xa;in BLOB" style="strokeWidth=2;" parent="3" vertex="1">
          <mxGeometry x="16.5" y="253" width="112.5" height="38" as="geometry" />
        </mxCell>
        <mxCell id="upPxFK4V3KSuMPYXxNnu-86" value="" style="endArrow=open;strokeColor=#000000;endFill=1;rounded=0;exitX=0.5;exitY=1;exitDx=0;exitDy=0;" parent="3" source="upPxFK4V3KSuMPYXxNnu-83" edge="1">
          <mxGeometry relative="1" as="geometry">
            <mxPoint x="-155" y="152" as="sourcePoint" />
            <mxPoint x="73.5" y="322" as="targetPoint" />
          </mxGeometry>
        </mxCell>
        <mxCell id="upPxFK4V3KSuMPYXxNnu-90" value="" style="edgeStyle=elbowEdgeStyle;elbow=horizontal;align=left;verticalAlign=top;endArrow=open;endSize=8;strokeColor=#FF0000;endFill=1;rounded=0;entryX=1;entryY=0.75;entryDx=0;entryDy=0;fontColor=#FF0000;startArrow=none;exitX=1;exitY=0.5;exitDx=0;exitDy=0;" parent="3" source="upPxFK4V3KSuMPYXxNnu-83" edge="1">
          <mxGeometry x="-1" relative="1" as="geometry">
            <mxPoint x="-86.25" y="614.75" as="targetPoint" />
            <mxPoint x="411.25" y="472" as="sourcePoint" />
            <Array as="points">
              <mxPoint x="156" y="432" />
              <mxPoint x="422.77" y="624" />
            </Array>
          </mxGeometry>
        </mxCell>
        <mxCell id="upPxFK4V3KSuMPYXxNnu-77" value="" style="strokeWidth=2;gradientColor=#ffffff;fillColor=none;dashed=1;dashPattern=1 4;" parent="3" vertex="1">
          <mxGeometry x="-266" y="302" width="715" height="260" as="geometry" />
        </mxCell>
        <mxCell id="upPxFK4V3KSuMPYXxNnu-96" value="" style="verticalLabelPosition=bottom;verticalAlign=top;html=1;shape=mxgraph.basic.tick;rounded=1;fontSize=12;fontColor=#000000;strokeColor=#00CC00;strokeWidth=2;fillColor=#00CC00;gradientColor=#00CC00;" parent="3" vertex="1">
          <mxGeometry x="165.5" y="302" width="40" height="40" as="geometry" />
        </mxCell>
        <mxCell id="upPxFK4V3KSuMPYXxNnu-97" value="" style="verticalLabelPosition=bottom;verticalAlign=top;html=1;shape=mxgraph.basic.tick;rounded=1;fontSize=12;fontColor=#000000;strokeColor=#00CC00;strokeWidth=2;fillColor=#00CC00;gradientColor=#00CC00;" parent="3" vertex="1">
          <mxGeometry x="-264.5" y="419" width="40" height="40" as="geometry" />
        </mxCell>
        <mxCell id="20" value="" style="endArrow=open;strokeColor=#000000;endFill=1;rounded=0;entryX=0.995;entryY=0.329;entryDx=0;entryDy=0;entryPerimeter=0;" parent="1" target="10" edge="1">
          <mxGeometry relative="1" as="geometry">
            <mxPoint x="460" y="478" as="sourcePoint" />
            <mxPoint x="360" y="650" as="targetPoint" />
            <Array as="points" />
          </mxGeometry>
        </mxCell>
        <mxCell id="upPxFK4V3KSuMPYXxNnu-44" value="&lt;b&gt;Current implementation&lt;/b&gt;" style="text;html=1;strokeColor=none;fillColor=none;align=center;verticalAlign=middle;whiteSpace=wrap;rounded=0;" parent="1" vertex="1">
          <mxGeometry x="164.5" y="87" width="175.5" height="30" as="geometry" />
        </mxCell>
        <mxCell id="upPxFK4V3KSuMPYXxNnu-60" value="" style="edgeStyle=elbowEdgeStyle;elbow=horizontal;align=left;verticalAlign=top;endArrow=open;endSize=8;strokeColor=#000000;endFill=1;rounded=0;exitX=0.5;exitY=1;exitDx=0;exitDy=0;entryX=0.981;entryY=0.918;entryDx=0;entryDy=0;entryPerimeter=0;" parent="1" source="30" target="10" edge="1">
          <mxGeometry x="-1" relative="1" as="geometry">
            <mxPoint x="350" y="560" as="targetPoint" />
            <mxPoint x="610" y="550" as="sourcePoint" />
            <Array as="points">
              <mxPoint x="830.5" y="530" />
              <mxPoint x="865.5" y="564" />
            </Array>
          </mxGeometry>
        </mxCell>
        <mxCell id="upPxFK4V3KSuMPYXxNnu-75" value="yes" style="edgeStyle=elbowEdgeStyle;elbow=horizontal;align=left;verticalAlign=top;endArrow=open;endSize=8;strokeColor=#FF0000;endFill=1;rounded=0;exitX=0.6;exitY=0.958;exitDx=0;exitDy=0;exitPerimeter=0;" parent="1" source="21" edge="1">
          <mxGeometry x="-0.6948" relative="1" as="geometry">
            <mxPoint x="680" y="450" as="targetPoint" />
            <mxPoint x="580" y="410" as="sourcePoint" />
            <Array as="points">
              <mxPoint x="680" y="420" />
              <mxPoint x="845.5" y="400" />
            </Array>
            <mxPoint as="offset" />
          </mxGeometry>
        </mxCell>
        <mxCell id="upPxFK4V3KSuMPYXxNnu-82" value="" style="edgeStyle=elbowEdgeStyle;elbow=horizontal;align=left;verticalAlign=top;endArrow=open;endSize=8;strokeColor=#FF0000;endFill=1;rounded=0;fontColor=#FF0000;" parent="1" edge="1">
          <mxGeometry x="-1" relative="1" as="geometry">
            <mxPoint x="360" y="630" as="targetPoint" />
            <mxPoint x="680" y="500" as="sourcePoint" />
            <Array as="points">
              <mxPoint x="680" y="570" />
              <mxPoint x="877.27" y="642" />
            </Array>
          </mxGeometry>
        </mxCell>
        <mxCell id="upPxFK4V3KSuMPYXxNnu-62" value="" style="edgeStyle=elbowEdgeStyle;elbow=horizontal;align=left;verticalAlign=top;endArrow=open;endSize=8;strokeColor=#FF0000;endFill=1;rounded=0;exitX=0.75;exitY=1;exitDx=0;exitDy=0;entryX=1;entryY=0.75;entryDx=0;entryDy=0;fontColor=#FF0000;" parent="1" source="30" target="upPxFK4V3KSuMPYXxNnu-61" edge="1">
          <mxGeometry x="-1" relative="1" as="geometry">
            <mxPoint x="359.999" y="617.03" as="targetPoint" />
            <mxPoint x="833.52" y="590" as="sourcePoint" />
            <Array as="points">
              <mxPoint x="850.5" y="600" />
              <mxPoint x="869.02" y="653" />
            </Array>
          </mxGeometry>
        </mxCell>
        <mxCell id="upPxFK4V3KSuMPYXxNnu-88" value="" style="edgeStyle=elbowEdgeStyle;elbow=horizontal;align=left;verticalAlign=top;endArrow=open;endSize=8;strokeColor=#000000;endFill=1;rounded=0;" parent="1" edge="1">
          <mxGeometry x="-1" relative="1" as="geometry">
            <mxPoint x="460" y="390" as="targetPoint" />
            <mxPoint x="360" y="490" as="sourcePoint" />
            <Array as="points">
              <mxPoint x="400" y="560" />
              <mxPoint x="875.5" y="574" />
            </Array>
          </mxGeometry>
        </mxCell>
        <mxCell id="upPxFK4V3KSuMPYXxNnu-92" value="" style="edgeStyle=elbowEdgeStyle;elbow=horizontal;align=left;verticalAlign=top;endArrow=open;endSize=8;strokeColor=#FF0000;endFill=1;rounded=0;" parent="1" edge="1">
          <mxGeometry x="-1" relative="1" as="geometry">
            <mxPoint x="460" y="408" as="targetPoint" />
            <mxPoint x="360" y="590" as="sourcePoint" />
            <Array as="points">
              <mxPoint x="410" y="570" />
              <mxPoint x="885.5" y="584" />
            </Array>
          </mxGeometry>
        </mxCell>
      </root>
    </mxGraphModel>
  </diagram>
</mxfile>
